HIERARCHY
ROOT Hips
{
    OFFSET   0.000000   0.000000   0.000000
    CHANNELS 6 Xposition Yposition Zposition Zrotation Xrotation Yrotation
    JOINT Chest
    {
        OFFSET   0.000000   8.007230   0.000000
        CHANNELS 3 Zrotation Xrotation Yrotation
        JOINT Chest2
        {
            OFFSET   0.000000  22.077100   0.000000
            CHANNELS 3 Zrotation Xrotation Yrotation
            JOINT Neck
            {
                OFFSET   0.000000  23.255100   0.000000
                CHANNELS 3 Zrotation Xrotation Yrotation
                JOINT Head
                {
                    OFFSET   0.000000  14.370100   1.956600
                    CHANNELS 3 Zrotation Xrotation Yrotation
                    End Site
                    {
                        OFFSET   0.000000  19.566000   0.000000
                    }
                }
            }
            JOINT LeftCollar
            {
                OFFSET   3.911900  19.017000  -0.467063
                CHANNELS 3 Zrotation Xrotation Yrotation
                JOINT LeftShoulder
                {
                    OFFSET  10.383700   0.000000   0.000000
                    CHANNELS 3 Zrotation Xrotation Yrotation
                    JOINT LeftElbow
                    {
                        OFFSET  26.662100   0.001193   0.000980
                        CHANNELS 3 Zrotation Xrotation Yrotation
                        JOINT LeftWrist
                        {
                            OFFSET  28.869000  -0.000059  -0.000082
                            CHANNELS 3 Zrotation Xrotation Yrotation
                            JOINT LeftFinger0
                            {
                                OFFSET   2.044650  -2.323450   3.252850
                                CHANNELS 3 Zrotation Xrotation Yrotation
                                JOINT LeftFinger01
                                {
                                    OFFSET   3.088130   0.000000   0.000000
                                    CHANNELS 3 Zrotation Xrotation Yrotation
                                    JOINT LeftFinger02
                                    {
                                        OFFSET   2.639460   0.000000   0.000000
                                        CHANNELS 3 Zrotation Xrotation Yrotation
                                        End Site
                                        {
                                            OFFSET   2.582190   0.000000   0.000000
                                        }
                                    }
                                }
                            }
                            JOINT LeftFinger1
                            {
                                OFFSET   8.364480   0.000000   3.252850
                                CHANNELS 3 Zrotation Xrotation Yrotation
                                JOINT LeftFinger11
                                {
                                    OFFSET   4.646930   0.000000   0.000000
                                    CHANNELS 3 Zrotation Xrotation Yrotation
                                    JOINT LeftFinger12
                                    {
                                        OFFSET   2.323470   0.000000   0.000000
                                        CHANNELS 3 Zrotation Xrotation Yrotation
                                        End Site
                                        {
                                            OFFSET   2.273050   0.000000   0.000000
                                        }
                                    }
                                }
                            }
                            JOINT LeftFinger2
                            {
                                OFFSET   8.364490   0.000016   1.078090
                                CHANNELS 3 Zrotation Xrotation Yrotation
                                JOINT LeftFinger21
                                {
                                    OFFSET   5.111610   0.000000   0.000000
                                    CHANNELS 3 Zrotation Xrotation Yrotation
                                    JOINT LeftFinger22
                                    {
                                        OFFSET   2.788150   0.000016   0.000000
                                        CHANNELS 3 Zrotation Xrotation Yrotation
                                        End Site
                                        {
                                            OFFSET   2.727660   0.000000   0.000000
                                        }
                                    }
                                }
                            }
                            JOINT LeftFinger3
                            {
                                OFFSET   7.899780   0.000015  -1.078090
                                CHANNELS 3 Zrotation Xrotation Yrotation
                                JOINT LeftFinger31
                                {
                                    OFFSET   4.646930   0.000000   0.000000
                                    CHANNELS 3 Zrotation Xrotation Yrotation
                                    JOINT LeftFinger32
                                    {
                                        OFFSET   2.323470   0.000000   0.000000
                                        CHANNELS 3 Zrotation Xrotation Yrotation
                                        End Site
                                        {
                                            OFFSET   2.273050   0.000000   0.000000
                                        }
                                    }
                                }
                            }
                            JOINT LeftFinger4
                            {
                                OFFSET   7.435090   0.000000  -3.252850
                                CHANNELS 3 Zrotation Xrotation Yrotation
                                JOINT LeftFinger41
                                {
                                    OFFSET   3.717550   0.000000   0.000000
                                    CHANNELS 3 Zrotation Xrotation Yrotation
                                    JOINT LeftFinger42
                                    {
                                        OFFSET   1.858770   0.000000   0.000000
                                        CHANNELS 3 Zrotation Xrotation Yrotation
                                        End Site
                                        {
                                            OFFSET   1.818440   0.000000   0.000000
                                        }
                                    }
                                }
                            }
                        }
                    }
                }
            }
            JOINT RightCollar
            {
                OFFSET  -3.911910  19.017000  -0.467062
                CHANNELS 3 Zrotation Xrotation Yrotation
                JOINT RightShoulder
                {
                    OFFSET -10.383700   0.000014   0.000000
                    CHANNELS 3 Zrotation Xrotation Yrotation
                    JOINT RightElbow
                    {
                        OFFSET -26.662100   0.001225   0.001091
                        CHANNELS 3 Zrotation Xrotation Yrotation
                        JOINT RightWrist
                        {
                            OFFSET -28.869000  -0.000020  -0.000085
                            CHANNELS 3 Zrotation Xrotation Yrotation
                            JOINT RightFinger0
                            {
                                OFFSET  -2.044650  -2.323490   3.252850
                                CHANNELS 3 Zrotation Xrotation Yrotation
                                JOINT RightFinger01
                                {
                                    OFFSET  -3.088130   0.000000   0.000000
                                    CHANNELS 3 Zrotation Xrotation Yrotation
                                    JOINT RightFinger02
                                    {
                                        OFFSET  -2.639460   0.000000   0.000000
                                        CHANNELS 3 Zrotation Xrotation Yrotation
                                        End Site
                                        {
                                            OFFSET  -2.582190   0.000000   0.000000
                                        }
                                    }
                                }
                            }
                            JOINT RightFinger1
                            {
                                OFFSET  -8.364480   0.000000   3.252850
                                CHANNELS 3 Zrotation Xrotation Yrotation
                                JOINT RightFinger11
                                {
                                    OFFSET  -4.646930   0.000000   0.000000
                                    CHANNELS 3 Zrotation Xrotation Yrotation
                                    JOINT RightFinger12
                                    {
                                        OFFSET  -2.323470   0.000000   0.000000
                                        CHANNELS 3 Zrotation Xrotation Yrotation
                                        End Site
                                        {
                                            OFFSET  -2.273050   0.000000   0.000000
                                        }
                                    }
                                }
                            }
                            JOINT RightFinger2
                            {
                                OFFSET  -8.364480   0.000000   1.078090
                                CHANNELS 3 Zrotation Xrotation Yrotation
                                JOINT RightFinger21
                                {
                                    OFFSET  -5.111620   0.000000   0.000000
                                    CHANNELS 3 Zrotation Xrotation Yrotation
                                    JOINT RightFinger22
                                    {
                                        OFFSET  -2.788160   0.000000   0.000000
                                        CHANNELS 3 Zrotation Xrotation Yrotation
                                        End Site
                                        {
                                            OFFSET  -2.727660   0.000000   0.000000
                                        }
                                    }
                                }
                            }
                            JOINT RightFinger3
                            {
                                OFFSET  -7.899780   0.000000  -1.078090
                                CHANNELS 3 Zrotation Xrotation Yrotation
                                JOINT RightFinger31
                                {
                                    OFFSET  -4.646930   0.000000   0.000000
                                    CHANNELS 3 Zrotation Xrotation Yrotation
                                    JOINT RightFinger32
                                    {
                                        OFFSET  -2.323470   0.000000   0.000000
                                        CHANNELS 3 Zrotation Xrotation Yrotation
                                        End Site
                                        {
                                            OFFSET  -2.273050   0.000000   0.000000
                                        }
                                    }
                                }
                            }
                            JOINT RightFinger4
                            {
                                OFFSET  -7.435090   0.000000  -3.252850
                                CHANNELS 3 Zrotation Xrotation Yrotation
                                JOINT RightFinger41
                                {
                                    OFFSET  -3.717550   0.000000   0.000000
                                    CHANNELS 3 Zrotation Xrotation Yrotation
                                    JOINT RightFinger42
                                    {
                                        OFFSET  -1.858760   0.000000   0.000000
                                        CHANNELS 3 Zrotation Xrotation Yrotation
                                        End Site
                                        {
                                            OFFSET  -1.818440   0.000000   0.000000
                                        }
                                    }
                                }
                            }
                        }
                    }
                }
            }
        }
    }
    JOINT LeftHip
    {
        OFFSET   9.783030   0.000000   0.000000
        CHANNELS 3 Zrotation Xrotation Yrotation
        JOINT LeftKnee
        {
            OFFSET   0.000063 -41.789100   0.000608
            CHANNELS 3 Zrotation Xrotation Yrotation
            JOINT LeftAnkle
            {
                OFFSET   0.000048 -41.133200  -0.000184
                CHANNELS 3 Zrotation Xrotation Yrotation
                JOINT LeftToe
                {
                    OFFSET   0.000000  -6.358960  14.674500
                    CHANNELS 3 Zrotation Xrotation Yrotation
                    End Site
                    {
                        OFFSET   0.000000   0.000000   3.913200
                    }
                }
            }
        }
    }
    JOINT RightHip
    {
        OFFSET  -9.783030   0.000000   0.000000
        CHANNELS 3 Zrotation Xrotation Yrotation
        JOINT RightKnee
        {
            OFFSET   0.000071 -41.789100   0.001239
            CHANNELS 3 Zrotation Xrotation Yrotation
            JOINT RightAnkle
            {
                OFFSET   0.000037 -41.133200  -0.000166
                CHANNELS 3 Zrotation Xrotation Yrotation
                JOINT RightToe
                {
                    OFFSET   0.000000  -6.358960  14.674500
                    CHANNELS 3 Zrotation Xrotation Yrotation
                    End Site
                    {
                        OFFSET   0.000000   0.000000   3.913200
                    }
                }
            }
        }
    }
}
MOTION
Frames: 4
Frame Time:   0.016667
  0.614120  89.565600   1.549440  -0.816157 -11.549200   7.379660  -0.419612   6.631940   2.067650  -1.092800  13.244000   4.227340  -4.752270  -1.037880  -0.084036  -7.814190  -2.061770  -9.887740  -1.795900   0.635007   2.873290 -50.872300   1.799340 -53.671100   4.853580 -28.110100 -115.130000 -45.845700 -58.120900 -19.856000  45.561800  30.588800 -66.251100   7.959540  -0.001851   0.001854   8.979810   0.000750  -0.002276 -88.996200   4.999940  -0.087490 -92.173100  -0.001399  -0.002197 -69.129800   0.001619  -0.002448 -89.000000   0.003585   0.002680 -103.022000  -0.000180  -0.002890 -77.266400   0.000000   0.006082 -89.000400  -5.008940   0.087908 -93.650000  -0.001647  -0.002261 -70.237400   0.002504   0.000531 -32.600800 -10.838700  16.385900 -51.249700   0.001271   0.003143 -34.132300  -0.003638  -0.000447   6.496960   1.989990   6.373670  65.626500  29.302900   4.886190   0.240982  -4.439370  13.163400 -10.557500 -13.610100  -3.447360 -38.222900  29.884000  61.248100  30.393800   0.003334  -0.001886  10.196900   0.000727  -0.001889  26.976600   9.442460  17.864400  23.288700  -0.010066   0.003987  16.302100  -0.000215   0.001790  27.489500   5.589120  10.620900  32.054100  -0.003230  -0.000589  21.348100  -0.002629   0.000690  24.214100   2.079500   4.612890  24.298000  -0.004455   0.003248  16.182400   0.000870   0.000600  30.436800   1.170400   1.990990  45.685900  -0.001676  -0.002911  30.426800   0.002981   0.000305   2.021840  12.108500   3.016180   0.959516   0.127326   5.495320  -2.444940  -1.798340   0.010448  -0.000000   0.000000   0.000000   4.004430  13.892700  -2.803220  -0.667139   2.090460 -14.606300  -0.400787  -6.161260  -4.694670  -0.000000   0.000000   0.000000
  0.611545  89.565200   1.570650  -0.830363 -11.514700   7.338330  -0.431809   6.607510   2.091270  -1.119140  13.194500   4.275750  -4.685240  -1.059640  -0.083973  -7.703360  -2.106540  -9.929910  -1.814650   0.749594   2.715440 -51.438400   1.474560 -53.593200   4.583230 -27.247400 -116.446000 -46.272300 -57.613100 -20.314300  45.456600  30.472700 -66.094800   7.646550  -0.001557   0.001838   8.823310   0.000702  -0.002167 -88.996200   4.999920  -0.087487 -92.024000  -0.001336  -0.002115 -69.018000   0.001564  -0.002410 -89.000000   0.003544   0.002664 -102.835000  -0.000187  -0.002848 -77.126400   0.000068   0.006197 -89.000500  -5.009030   0.087911 -93.518500  -0.001575  -0.002244 -70.138800   0.002441   0.000546 -32.594200 -10.787100  16.353900 -51.219200   0.001241   0.003122 -34.112000  -0.003570  -0.000395   6.525190   2.042230   6.224390  65.652700  29.237100   4.844500   0.140635  -4.315810  13.312000 -10.640800 -13.728200  -3.437570 -38.204600  29.869700  61.198100  30.414100   0.003326  -0.001882  10.207100   0.000798  -0.001871  27.035600   9.466180  17.857300  23.339000  -0.010037   0.003925  16.337300  -0.000227   0.001807  27.509100   5.587870  10.602000  32.173200  -0.003175  -0.000662  21.427400  -0.002605   0.000657  24.278300   2.077590   4.596480  24.360700  -0.004442   0.003195  16.224200   0.000869   0.000602  30.480100   1.162800   1.974730  45.750200  -0.001742  -0.002899  30.469700   0.003005   0.000352   2.035510  12.082300   3.033900   0.955874   0.119408   5.498950  -2.452730  -1.810730   0.026222  -0.000000   0.000000   0.000000   4.013320  13.855200  -2.786790  -0.668222   2.089220 -14.568100  -0.407397  -6.160430  -4.705510   0.000000   0.000000   0.000000
  0.608650  89.564600   1.593910  -0.849443 -11.459500   7.283010  -0.448340   6.563960   2.134330  -1.155770  13.106200   4.363980  -4.613040  -1.062750  -0.083534  -7.585670  -2.113510 -10.011300  -1.839480   0.876607   2.530140 -51.875100   1.186270 -53.561700   4.346210 -26.318400 -117.844000 -46.381500 -57.260300 -20.394200  45.412700  30.277500 -65.829800   7.472400  -0.001351   0.001823   8.736220   0.000655  -0.002060 -88.996200   4.999890  -0.087484 -91.762100  -0.001272  -0.002033 -68.821600   0.001508  -0.002373 -89.000000   0.003501   0.002648 -102.531000  -0.000193  -0.002808 -76.898200   0.000139   0.006312 -89.000500  -5.009110   0.087916 -93.245800  -0.001496  -0.002230 -69.934300   0.002377   0.000560 -32.488100 -10.767200  16.348600 -51.058300   0.001210   0.003101 -34.004900  -0.003503  -0.000346   6.557390   2.100050   6.059030  65.694800  29.135500   4.785110   0.055340  -4.200260  13.443100 -10.702300 -13.858800  -3.436220 -38.182000  29.855000  61.170000  30.459700   0.003313  -0.001876  10.229900   0.000867  -0.001855  27.131400   9.481980  17.822200  23.417600  -0.010012   0.003865  16.392300  -0.000248   0.001820  27.531400   5.587450  10.580100  32.325800  -0.003120  -0.000733  21.529000  -0.002583   0.000622  24.362100   2.064030   4.547760  24.444100  -0.004430   0.003139  16.279800   0.000866   0.000605  30.552300   1.150080   1.947560  45.857700  -0.001810  -0.002886  30.541300   0.003028   0.000399   2.049570  12.053100   3.042580   0.947975   0.105525   5.513500  -2.461370  -1.815390   0.057401  -0.000000   0.000000  -0.000000   4.017420  13.810100  -2.778280  -0.670297   2.078470 -14.517400  -0.410135  -6.155300  -4.709580  -0.000000   0.000000  -0.000000
  0.606531  89.564200   1.616090  -0.868146 -11.395500   7.221870  -0.466973   6.521220   2.179410  -1.196840  13.019500   4.456260  -4.546800  -1.041110  -0.081725  -7.473210  -2.071110 -10.103500  -1.855950   0.981562   2.371470 -51.959000   1.119140 -53.569500   4.170520 -25.788800 -119.160000 -46.488900 -57.170800 -20.345500  45.581200  30.161100 -65.462700   7.483700  -0.001117   0.001812   8.741870   0.000611  -0.001958 -88.996200   4.999870  -0.087491 -91.439900  -0.001196  -0.001955 -68.580000   0.001451  -0.002339 -89.000000   0.003460   0.002637 -102.164000  -0.000199  -0.002770 -76.622600   0.000202   0.006429 -89.000500  -5.009200   0.087922 -92.925700  -0.001414  -0.002206 -69.694200   0.002319   0.000575 -32.258800 -10.752500  16.447300 -50.723100   0.001175   0.003076 -33.781600  -0.003442  -0.000291   6.584130   2.145380   5.925370  65.732000  29.058300   4.755760   0.023936  -4.162180  13.521800 -10.695600 -13.955200  -3.442160 -38.152800  29.871200  61.194600  30.535000   0.003280  -0.001855  10.267500   0.000925  -0.001825  27.216900   9.466000  17.726500  23.480200  -0.009994   0.003815  16.436100  -0.000263   0.001822  27.548000   5.587860  10.563600  32.435800  -0.003061  -0.000800  21.602200  -0.002566   0.000589  24.420600   2.021900   4.436090  24.499100  -0.004422   0.003075  16.316400   0.000859   0.000612  30.624900   1.137230   1.920230  45.965900  -0.001887  -0.002877  30.613400   0.003052   0.000436   2.062510  12.010100   3.029970   0.936905   0.096227   5.545230  -2.472690  -1.825310   0.095473   0.000000   0.000000   0.000000   4.008070  13.762100  -2.795370  -0.666179   2.047810 -14.455800  -0.407782  -6.140690  -4.687040  -0.000000   0.000000  -0.000000
